{"title":"18+ Gun Woman 2014 UNCENSORED Movies 720p Blu Ray +Sample â˜»rDXâ˜»","uid":10473748,"size":743504926,"categoryP":"video","categoryS":"movies","magnet":"?xt=urn:btih:6e566c17b86c5774908ec649b1575630458d8cf2&amp;dn=18%2B+Gun+Woman+2014+UNCENSORED+Movies+720p+Blu+Ray+%2BSample+%E2%98%BBrDX%E2%98%BB&amp;tr=udp%3A%2F%2Ftracker.openbittorrent.com%3A80&amp;tr=udp%3A%2F%2Fopen.demonii.com%3A1337&amp;tr=udp%3A%2F%2Ftracker.coppersurfer.tk%3A6969&amp;tr=udp%3A%2F%2Fexodus.desync.com%3A6969","seeders":5,"leechers":1,"uploader":"basicssom","files":2,"time":1404299643,"description":"----------------------------------------------------------------\n18+ Gun Woman 2014 UNCENSORED Movies 720p Blu Ray x264 New AAC with Sample ~ â˜»rDXâ˜»\n\nPOSTER:\n &lt;a href=&quot;\nhttp://www.imgclik.com/images/23733107602867587387.jpg&quot; rel=&quot;nofollow&quot; target=&quot;_NEW&quot;&gt;\nhttp://www.imgclik.com/images/23733107602867587387.jpg&lt;/a&gt;\n\nSCREEN SHOTS :\n &lt;a href=&quot;\nhttp://moviesreview.co.nr/2014/7/GunWoman/1.html&quot; rel=&quot;nofollow&quot; target=&quot;_NEW&quot;&gt;\nhttp://moviesreview.co.nr/2014/7/GunWoman/1.html&lt;/a&gt; &lt;a href=&quot;\nhttp://moviesreview.co.nr/2014/7/GunWoman/2.html&quot; rel=&quot;nofollow&quot; target=&quot;_NEW&quot;&gt;\nhttp://moviesreview.co.nr/2014/7/GunWoman/2.html&lt;/a&gt; &lt;a href=&quot;\nhttp://moviesreview.co.nr/2014/7/GunWoman/3.html&quot; rel=&quot;nofollow&quot; target=&quot;_NEW&quot;&gt;\nhttp://moviesreview.co.nr/2014/7/GunWoman/3.html&lt;/a&gt; &lt;a href=&quot;\nhttp://moviesreview.co.nr/2014/7/GunWoman/4.html&quot; rel=&quot;nofollow&quot; target=&quot;_NEW&quot;&gt;\nhttp://moviesreview.co.nr/2014/7/GunWoman/4.html&lt;/a&gt; &lt;a href=&quot;\nhttp://moviesreview.co.nr/2014/7/GunWoman/5.html&quot; rel=&quot;nofollow&quot; target=&quot;_NEW&quot;&gt;\nhttp://moviesreview.co.nr/2014/7/GunWoman/5.html&lt;/a&gt; &lt;a href=&quot;\nhttp://moviesreview.co.nr/2014/7/GunWoman/6.html&quot; rel=&quot;nofollow&quot; target=&quot;_NEW&quot;&gt;\nhttp://moviesreview.co.nr/2014/7/GunWoman/6.html&lt;/a&gt; &lt;a href=&quot;\nhttp://moviesreview.co.nr/2014/7/GunWoman/7.html&quot; rel=&quot;nofollow&quot; target=&quot;_NEW&quot;&gt;\nhttp://moviesreview.co.nr/2014/7/GunWoman/7.html&lt;/a&gt; &lt;a href=&quot;\nhttp://moviesreview.co.nr/2014/7/GunWoman/8.html&quot; rel=&quot;nofollow&quot; target=&quot;_NEW&quot;&gt;\nhttp://moviesreview.co.nr/2014/7/GunWoman/8.html&lt;/a&gt; &lt;a href=&quot;\nhttp://moviesreview.co.nr/2014/7/GunWoman/9.html&quot; rel=&quot;nofollow&quot; target=&quot;_NEW&quot;&gt;\nhttp://moviesreview.co.nr/2014/7/GunWoman/9.html&lt;/a&gt; &lt;a href=&quot;\nhttp://moviesreview.co.nr/2014/7/GunWoman/10.html&quot; rel=&quot;nofollow&quot; target=&quot;_NEW&quot;&gt;\nhttp://moviesreview.co.nr/2014/7/GunWoman/10.html&lt;/a&gt;\n\nFormat                                   : MPEG-4\nFormat profile                           : Base Media\nCodec ID                                 : isom\nFile size                                : 702 MiB\nDuration                                 : 1h 25mn\nOverall bit rate mode                    : Variable\nOverall bit rate                         : 1 142 Kbps\n\nVideo\nID                                       : 1\nFormat                                   : AVC\nFormat/Info                              : Advanced Video Codec\nFormat profile                           : &lt;a class=&quot;__cf_email__&quot; href=&quot;/cdn-cgi/l/email-protection&quot; data-cfemail=&quot;82caebe5eac2ceb6acb3&quot;&gt;[email&amp;#160;protected]&lt;/a&gt;&lt;script cf-hash='f9e31' type=&quot;text/javascript&quot;&gt;\n/* &lt;![CDATA[ */!function(){try{var t=&quot;currentScript&quot;in document?document.currentScript:function(){for(var t=document.getElementsByTagName(&quot;script&quot;),e=t.length;e--;)if(t[e].getAttribute(&quot;cf-hash&quot;))return t[e]}();if(t&amp;&amp;t.previousSibling){var e,r,n,i,c=t.previousSibling,a=c.getAttribute(&quot;data-cfemail&quot;);if(a){for(e=&quot;&quot;,r=parseInt(a.substr(0,2),16),n=2;a.length-n;n+=2)i=parseInt(a.substr(n,2),16)^r,e+=String.fromCharCode(i);e=document.createTextNode(e),c.parentNode.replaceChild(e,c)}}}catch(u){}}();/* ]]&gt; */&lt;/script&gt;\nFormat settings, CABAC                   : Yes\nFormat settings, ReFrames                : 4 frames\nCodec ID                                 : avc1\nCodec ID/Info                            : Advanced Video Coding\nDuration                                 : 1h 25mn\nBit rate                                 : 1 044 Kbps\nMaximum bit rate                         : 6 280 Kbps\nWidth                                    : 1 280 pixels\nHeight                                   : 720 pixels\nDisplay aspect ratio                     : 16:9\nFrame rate mode                          : Constant\nFrame rate                               : 24.000 fps\nColor space                              : YUV\nChroma subsampling                       : 4:2:0\nBit depth                                : 8 bits\nScan type                                : Progressive\nBits/(Pixel*Frame)                       : 0.047\nStream size                              : 642 MiB (91%)\nWriting library                          : x264\nEncoded date                             : UTC 2014-07-01 23:35:18\nTagged date                              : UTC 2014-07-01 23:35:23\nColor primaries                          : BT.709\nMatrix coefficients                      : BT.709\n\nAudio\nID                                       : 2\nFormat                                   : AAC\nFormat/Info                              : Advanced Audio Codec\nFormat profile                           : LC\nCodec ID                                 : 40\nDuration                                 : 1h 25mn\nBit rate mode                            : Variable\nBit rate                                 : 93.7 Kbps\nMaximum bit rate                         : 103 Kbps\nChannel(s)                               : 2 channels\nChannel positions                        : Front: L R\nSampling rate                            : 48.0 KHz\nCompression mode                         : Lossy\nStream size                              : 57.6 MiB (8%)\nLanguage                                 : English","torrent":{"xt":"urn:btih:6e566c17b86c5774908ec649b1575630458d8cf2","amp;dn":"18%2B+Gun+Woman+2014+UNCENSORED+Movies+720p+Blu+Ray+%2BSample+%E2%98%BBrDX%E2%98%BB","amp;tr":["udp%3A%2F%2Ftracker.openbittorrent.com%3A80","udp%3A%2F%2Fopen.demonii.com%3A1337","udp%3A%2F%2Ftracker.coppersurfer.tk%3A6969","udp%3A%2F%2Fexodus.desync.com%3A6969"],"infoHash":"6e566c17b86c5774908ec649b1575630458d8cf2","infoHashBuffer":{"type":"Buffer","data":[110,86,108,23,184,108,87,116,144,142,198,73,177,87,86,48,69,141,140,242]},"announce":[],"urlList":[]}}